<svg id="Capa_1" data-name="Capa 1" xmlns="http://www.w3.org/2000/svg" viewBox="0 0 226.94 210.91"><defs><style>.cls-1{fill:#ffd35c;}</style></defs><title>comillas</title><path class="cls-1" d="M97.71,232.08V270a9.3,9.3,0,0,1-9.3,9.3c-18.33,0-28.29,18.79-29.67,55.88H88.41a9.3,9.3,0,0,1,9.3,9.31v79.95a9.3,9.3,0,0,1-9.3,9.3H9.3a9.3,9.3,0,0,1-9.3-9.3V344.44c0-17.78,1.79-34.11,5.32-48.52,3.62-14.77,9.18-27.68,16.51-38.39A80.59,80.59,0,0,1,49.89,231.9C61,225.85,74,222.78,88.42,222.78A9.3,9.3,0,0,1,97.71,232.08Zm119.94-9.3c-14.41,0-27.38,3.07-38.53,9.12a80.53,80.53,0,0,0-28.06,25.64c-7.34,10.7-12.89,23.61-16.52,38.39-3.53,14.41-5.31,30.72-5.31,48.5v80a9.3,9.3,0,0,0,9.3,9.3h79.11a9.3,9.3,0,0,0,9.3-9.3v-80a9.3,9.3,0,0,0-9.3-9.3H188.39c1.36-37.09,11.19-55.88,29.25-55.88a9.31,9.31,0,0,0,9.3-9.3V232.08A9.3,9.3,0,0,0,217.65,222.78Z" transform="translate(0 -222.78)"/></svg>